<svg width="30" height="19" viewBox="0 0 30 19" fill="none" xmlns="http://www.w3.org/2000/svg">
<path d="M8.7264 0C9.59079 0 10.3895 0.0656263 11.1227 0.262505C11.8539 0.393757 12.4558 0.667511 12.9902 0.995642C13.5265 1.32565 13.9221 1.79441 14.1921 2.39629C14.4546 2.9963 14.5971 3.72944 14.5971 4.5282C14.5971 5.45822 14.3984 6.25698 13.9296 6.85699C13.5265 7.457 12.8683 7.99326 12.0602 8.38889C13.1965 8.7189 14.0609 9.31891 14.5877 10.1177C15.1146 10.9164 15.4521 11.9121 15.4521 13.0483C15.4521 13.9784 15.2553 14.7771 14.9178 15.4446C14.5811 16.1165 14.0759 16.6896 13.4515 17.1078C12.8515 17.5109 12.1183 17.8391 11.3196 18.0378C10.5371 18.2444 9.73245 18.3553 8.92327 18.3678L0 18.3809V0H8.7264ZM8.19201 7.45888C8.92327 7.45888 9.52329 7.262 9.98642 6.92449C10.4477 6.58699 10.6521 5.9926 10.6521 5.26134C10.6521 4.85633 10.5864 4.46258 10.4552 4.1982C10.3131 3.93024 10.107 3.70158 9.85517 3.53256C9.58316 3.38425 9.29242 3.27325 8.99078 3.20255C8.66077 3.13693 8.32326 3.13693 7.92763 3.13693H4.06882V7.46825C4.06882 7.45888 8.19389 7.45888 8.19389 7.45888H8.19201ZM8.38889 15.3209C8.79202 15.3209 9.18765 15.2553 9.52516 15.1896C9.85517 15.124 10.1927 14.9909 10.4552 14.7846C10.7177 14.5784 10.9239 14.3815 11.1227 14.0534C11.2539 13.7234 11.3852 13.3202 11.3852 12.8515C11.3852 11.9215 11.1227 11.2539 10.5864 10.7852C10.052 10.3821 9.31891 10.1852 8.45452 10.1852H4.06882V15.3115H8.39077V15.3209H8.38889ZM21.2479 15.2553C21.7841 15.7896 22.581 16.054 23.6441 16.054C24.3754 16.054 25.0429 15.8553 25.5792 15.5178C26.1136 15.1146 26.4417 14.719 26.5729 14.3177H29.8355C29.2992 15.9134 28.5005 17.0497 27.4392 17.7828C26.3779 18.4484 25.1085 18.8441 23.5766 18.8441C22.5971 18.8484 21.6255 18.6671 20.7135 18.3097C19.8926 18.0045 19.1602 17.5008 18.5816 16.8434C17.9644 16.2304 17.5061 15.4761 17.2465 14.6459C16.9184 13.7815 16.7778 12.8515 16.7778 11.7808C16.7778 10.7852 16.909 9.84579 17.2465 8.9814C17.584 8.11889 18.0453 7.38388 18.6472 6.71824C19.2472 6.11823 19.9803 5.58197 20.7791 5.25196C21.6697 4.89735 22.6199 4.71598 23.5785 4.71758C24.7148 4.71758 25.7104 4.91446 26.5748 5.38322C27.4373 5.85197 28.1067 6.38073 28.6411 7.1795C29.1755 7.91076 29.5711 8.77515 29.843 9.70704C29.9743 10.6371 30.0399 11.5746 29.9743 12.6377H20.3178C20.3178 13.7252 20.7116 14.719 21.2479 15.2553V15.2553ZM25.4479 8.25764C24.9792 7.78888 24.2442 7.5245 23.3798 7.5245C22.7798 7.5245 22.3185 7.65576 21.9154 7.85451C21.5122 8.05139 21.2479 8.32327 20.9854 8.58577C20.7403 8.84313 20.5771 9.16747 20.5166 9.51766C20.4491 9.84579 20.3853 10.1177 20.3853 10.3802H26.3779C26.2467 9.39391 25.9092 8.7264 25.4461 8.25764H25.4479ZM19.5847 1.26752H27.0436V3.06193H19.5847V1.26752V1.26752Z" fill="white"/>
</svg>
