<svg width="30" height="30" viewBox="0 0 30 30" fill="none" xmlns="http://www.w3.org/2000/svg">
<path d="M15 0C6.7155 0 0 6.7155 0 15C0 23.2845 6.7155 30 15 30C23.2845 30 30 23.2845 30 15C30 6.7155 23.2845 0 15 0ZM15 2.1735C18.2678 2.1735 21.2505 3.396 23.5155 5.4075C21.8513 7.60275 19.323 9.0645 16.7895 10.0537C15.3553 7.44176 13.748 4.92865 11.9783 2.53125C12.968 2.29267 13.9826 2.17258 15.0007 2.1735H15ZM9.543 3.3885C11.2155 5.8905 12.8355 8.21025 14.3152 10.836C10.5727 11.8057 6.3435 12.3878 2.43675 12.3975C3.26025 8.4015 5.9445 5.0835 9.543 3.38925V3.3885ZM24.9382 6.891C26.7917 9.15597 27.8113 11.9886 27.8265 14.9152C24.8595 14.3302 21.909 14.1772 18.9045 14.4802C18.567 13.638 18.1575 12.8377 17.7652 11.9752C20.355 10.9305 23.124 9.1425 24.9382 6.89025V6.891ZM15.357 12.8205C15.678 13.503 16.05 14.2275 16.3995 14.9677C12.222 16.8097 7.77825 19.2712 5.472 23.5867C3.258 21.1367 2.0781 17.9249 2.1795 14.6243C6.65325 14.6033 11.0445 14.0438 15.357 12.8205V12.8205ZM22.1355 16.3177C24.0021 16.3181 25.861 16.5576 27.6667 17.0302C27.3883 18.7674 26.7555 20.4287 25.8075 21.9109C24.8595 23.393 23.6168 24.6642 22.1565 25.6455C21.468 22.5142 20.8117 19.518 19.6515 16.497C20.4738 16.3772 21.3037 16.317 22.1348 16.317L22.1355 16.3177ZM27.7335 16.5502C27.7245 16.6237 27.7163 16.6958 27.7058 16.7678C27.7163 16.695 27.7252 16.623 27.7335 16.5502ZM17.2785 17.0828C18.4605 20.1375 19.3882 23.52 20.0107 26.8118C18.4261 27.4841 16.7221 27.8295 15.0007 27.8273C12.1491 27.8313 9.3782 26.8808 7.1295 25.1272C9.45225 21.3592 13.05 18.5077 17.2778 17.0835L17.2785 17.0828Z" fill="white"/>
</svg>
