<svg width="70" height="70" viewBox="0 0 70 70" fill="none" xmlns="http://www.w3.org/2000/svg">
<path d="M69.7897 64.9685L47.066 42.2448C50.5923 37.6861 52.4998 32.1124 52.4998 26.2499C52.4998 19.2324 49.761 12.6524 44.8086 7.69122C39.8561 2.72999 33.2586 0 26.2499 0C19.2412 0 12.6437 2.73874 7.69122 7.69122C2.72999 12.6437 0 19.2324 0 26.2499C0 33.2586 2.73874 39.8561 7.69122 44.8086C12.6437 49.7698 19.2324 52.4998 26.2499 52.4998C32.1124 52.4998 37.6773 50.5923 42.2361 47.0748L64.9597 69.7897C65.0264 69.8564 65.1055 69.9093 65.1925 69.9453C65.2796 69.9814 65.373 70 65.4672 70C65.5615 70 65.6548 69.9814 65.7419 69.9453C65.829 69.9093 65.9081 69.8564 65.9747 69.7897L69.7897 65.9835C69.8564 65.9168 69.9093 65.8377 69.9453 65.7506C69.9814 65.6636 70 65.5702 70 65.476C70 65.3817 69.9814 65.2884 69.9453 65.2013C69.9093 65.1142 69.8564 65.0351 69.7897 64.9685V64.9685ZM40.1098 40.1098C36.3998 43.8111 31.4824 45.8498 26.2499 45.8498C21.0174 45.8498 16.0999 43.8111 12.3899 40.1098C8.68871 36.3998 6.64997 31.4824 6.64997 26.2499C6.64997 21.0174 8.68871 16.0912 12.3899 12.3899C16.0999 8.68871 21.0174 6.64997 26.2499 6.64997C31.4824 6.64997 36.4086 8.67996 40.1098 12.3899C43.8111 16.0999 45.8498 21.0174 45.8498 26.2499C45.8498 31.4824 43.8111 36.4086 40.1098 40.1098Z" fill="white"/>
</svg>
